# Blender 4.1.1
# www.blender.org
mtllib machine-framework.mtl
o 立方体
v 0.000000 -0.125000 -0.062500
v 0.000000 -0.062500 -0.062500
v 0.000000 -0.125000 -0.125000
v 0.000000 -0.062500 -0.125000
v 0.062500 -0.125000 -0.062500
v 0.062500 -0.062500 -0.062500
v 0.062500 -0.125000 -0.125000
v 0.062500 -0.062500 -0.125000
v -0.062500 -0.125000 -0.062500
v -0.062500 -0.062500 -0.062500
v -0.062500 -0.125000 -0.125000
v -0.062500 -0.062500 -0.125000
v 0.000000 -0.125000 -0.062500
v 0.000000 -0.062500 -0.062500
v 0.000000 -0.125000 -0.125000
v 0.000000 -0.062500 -0.125000
v 0.062500 -0.125000 -0.062500
v 0.062500 -0.062500 -0.062500
v 0.062500 -0.125000 -0.125000
v 0.062500 -0.062500 -0.125000
v 0.125000 -0.125000 -0.062500
v 0.125000 -0.062500 -0.062500
v 0.125000 -0.125000 -0.125000
v 0.125000 -0.062500 -0.125000
v -0.125000 -0.125000 -0.062500
v -0.125000 -0.062500 -0.062500
v -0.125000 -0.125000 -0.125000
v -0.125000 -0.062500 -0.125000
v -0.062500 -0.125000 -0.062500
v -0.062500 -0.062500 -0.062500
v -0.062500 -0.125000 -0.125000
v -0.062500 -0.062500 -0.125000
v 0.000000 -0.125000 0.125000
v 0.000000 -0.062500 0.125000
v 0.000000 -0.125000 0.062500
v 0.000000 -0.062500 0.062500
v 0.062500 -0.125000 0.125000
v 0.062500 -0.062500 0.125000
v 0.062500 -0.125000 0.062500
v 0.062500 -0.062500 0.062500
v -0.062500 -0.125000 0.125000
v -0.062500 -0.062500 0.125000
v -0.062500 -0.125000 0.062500
v -0.062500 -0.062500 0.062500
v 0.000000 -0.125000 0.125000
v 0.000000 -0.062500 0.125000
v 0.000000 -0.125000 0.062500
v 0.000000 -0.062500 0.062500
v 0.062500 -0.125000 0.125000
v 0.062500 -0.062500 0.125000
v 0.062500 -0.125000 0.062500
v 0.062500 -0.062500 0.062500
v 0.125000 -0.125000 0.125000
v 0.125000 -0.062500 0.125000
v 0.125000 -0.125000 0.062500
v 0.125000 -0.062500 0.062500
v -0.125000 -0.125000 0.125000
v -0.125000 -0.062500 0.125000
v -0.125000 -0.125000 0.062500
v -0.125000 -0.062500 0.062500
v -0.062500 -0.125000 0.125000
v -0.062500 -0.062500 0.125000
v -0.062500 -0.125000 0.062500
v -0.062500 -0.062500 0.062500
v -0.062500 -0.125000 0.000000
v -0.062500 -0.062500 0.000000
v -0.125000 -0.125000 0.000000
v -0.125000 -0.062500 0.000000
v -0.062500 -0.125000 -0.062500
v -0.062500 -0.062500 -0.062500
v -0.125000 -0.125000 -0.062500
v -0.125000 -0.062500 -0.062500
v -0.062500 -0.125000 0.062500
v -0.062500 -0.062500 0.062500
v -0.125000 -0.125000 0.062500
v -0.125000 -0.062500 0.062500
v -0.062500 -0.125000 0.000000
v -0.062500 -0.062500 0.000000
v -0.125000 -0.125000 0.000000
v -0.125000 -0.062500 0.000000
v 0.062500 -0.125000 0.000000
v 0.062500 -0.062500 0.000000
v 0.125000 -0.125000 0.000000
v 0.125000 -0.062500 0.000000
v 0.062500 -0.125000 0.062500
v 0.062500 -0.062500 0.062500
v 0.125000 -0.125000 0.062500
v 0.125000 -0.062500 0.062500
v 0.062500 -0.125000 -0.062500
v 0.062500 -0.062500 -0.062500
v 0.125000 -0.125000 -0.062500
v 0.125000 -0.062500 -0.062500
v 0.062500 -0.125000 0.000000
v 0.062500 -0.062500 0.000000
v 0.125000 -0.125000 0.000000
v 0.125000 -0.062500 0.000000
v 0.000000 0.062500 -0.062500
v 0.000000 0.125000 -0.062500
v 0.000000 0.062500 -0.125000
v 0.000000 0.125000 -0.125000
v 0.062500 0.062500 -0.062500
v 0.062500 0.125000 -0.062500
v 0.062500 0.062500 -0.125000
v 0.062500 0.125000 -0.125000
v -0.062500 0.062500 -0.062500
v -0.062500 0.125000 -0.062500
v -0.062500 0.062500 -0.125000
v -0.062500 0.125000 -0.125000
v 0.000000 0.062500 -0.062500
v 0.000000 0.125000 -0.062500
v 0.000000 0.062500 -0.125000
v 0.000000 0.125000 -0.125000
v 0.062500 0.062500 -0.062500
v 0.062500 0.125000 -0.062500
v 0.062500 0.062500 -0.125000
v 0.062500 0.125000 -0.125000
v 0.125000 0.062500 -0.062500
v 0.125000 0.125000 -0.062500
v 0.125000 0.062500 -0.125000
v 0.125000 0.125000 -0.125000
v -0.125000 0.062500 -0.062500
v -0.125000 0.125000 -0.062500
v -0.125000 0.062500 -0.125000
v -0.125000 0.125000 -0.125000
v -0.062500 0.062500 -0.062500
v -0.062500 0.125000 -0.062500
v -0.062500 0.062500 -0.125000
v -0.062500 0.125000 -0.125000
v 0.000000 0.062500 0.125000
v 0.000000 0.125000 0.125000
v 0.000000 0.062500 0.062500
v 0.000000 0.125000 0.062500
v 0.062500 0.062500 0.125000
v 0.062500 0.125000 0.125000
v 0.062500 0.062500 0.062500
v 0.062500 0.125000 0.062500
v -0.062500 0.062500 0.125000
v -0.062500 0.125000 0.125000
v -0.062500 0.062500 0.062500
v -0.062500 0.125000 0.062500
v 0.000000 0.062500 0.125000
v 0.000000 0.125000 0.125000
v 0.000000 0.062500 0.062500
v 0.000000 0.125000 0.062500
v 0.062500 0.062500 0.125000
v 0.062500 0.125000 0.125000
v 0.062500 0.062500 0.062500
v 0.062500 0.125000 0.062500
v 0.125000 0.062500 0.125000
v 0.125000 0.125000 0.125000
v 0.125000 0.062500 0.062500
v 0.125000 0.125000 0.062500
v -0.125000 0.062500 0.125000
v -0.125000 0.125000 0.125000
v -0.125000 0.062500 0.062500
v -0.125000 0.125000 0.062500
v -0.062500 0.062500 0.125000
v -0.062500 0.125000 0.125000
v -0.062500 0.062500 0.062500
v -0.062500 0.125000 0.062500
v -0.062500 0.062500 0.000000
v -0.062500 0.125000 0.000000
v -0.125000 0.062500 0.000000
v -0.125000 0.125000 0.000000
v -0.062500 0.062500 -0.062500
v -0.062500 0.125000 -0.062500
v -0.125000 0.062500 -0.062500
v -0.125000 0.125000 -0.062500
v -0.062500 0.062500 0.062500
v -0.062500 0.125000 0.062500
v -0.125000 0.062500 0.062500
v -0.125000 0.125000 0.062500
v -0.062500 0.062500 0.000000
v -0.062500 0.125000 0.000000
v -0.125000 0.062500 0.000000
v -0.125000 0.125000 0.000000
v 0.062500 0.062500 0.000000
v 0.062500 0.125000 0.000000
v 0.125000 0.062500 0.000000
v 0.125000 0.125000 0.000000
v 0.062500 0.062500 0.062500
v 0.062500 0.125000 0.062500
v 0.125000 0.062500 0.062500
v 0.125000 0.125000 0.062500
v 0.062500 0.062500 -0.062500
v 0.062500 0.125000 -0.062500
v 0.125000 0.062500 -0.062500
v 0.125000 0.125000 -0.062500
v 0.062500 0.062500 0.000000
v 0.062500 0.125000 0.000000
v 0.125000 0.062500 0.000000
v 0.125000 0.125000 0.000000
v 0.125000 0.000000 -0.062500
v 0.062500 0.000000 -0.062500
v 0.125000 0.000000 -0.125000
v 0.062500 0.000000 -0.125000
v 0.125000 0.062500 -0.062500
v 0.062500 0.062500 -0.062500
v 0.125000 0.062500 -0.125000
v 0.062500 0.062500 -0.125000
v 0.125000 -0.062500 -0.062500
v 0.062500 -0.062500 -0.062500
v 0.125000 -0.062500 -0.125000
v 0.062500 -0.062500 -0.125000
v 0.125000 0.000000 -0.062500
v 0.062500 0.000000 -0.062500
v 0.125000 0.000000 -0.125000
v 0.062500 0.000000 -0.125000
v -0.125000 0.000000 -0.062500
v -0.062500 0.000000 -0.062500
v -0.125000 0.000000 -0.125000
v -0.062500 0.000000 -0.125000
v -0.125000 -0.062500 -0.062500
v -0.062500 -0.062500 -0.062500
v -0.125000 -0.062500 -0.125000
v -0.062500 -0.062500 -0.125000
v -0.125000 0.062500 -0.062500
v -0.062500 0.062500 -0.062500
v -0.125000 0.062500 -0.125000
v -0.062500 0.062500 -0.125000
v -0.125000 0.000000 -0.062500
v -0.062500 0.000000 -0.062500
v -0.125000 0.000000 -0.125000
v -0.062500 0.000000 -0.125000
v 0.062500 0.062500 0.125000
v 0.062500 0.125000 0.125000
v 0.062500 0.062500 0.062500
v 0.062500 0.125000 0.062500
v 0.125000 0.062500 0.125000
v 0.125000 0.125000 0.125000
v 0.125000 0.062500 0.062500
v 0.125000 0.125000 0.062500
v 0.062500 0.000000 0.125000
v 0.062500 0.000000 0.062500
v 0.125000 0.000000 0.125000
v 0.125000 0.000000 0.062500
v 0.062500 0.062500 0.125000
v 0.062500 0.062500 0.062500
v 0.125000 0.062500 0.125000
v 0.125000 0.062500 0.062500
v 0.062500 -0.062500 0.125000
v 0.062500 -0.062500 0.062500
v 0.125000 -0.062500 0.125000
v 0.125000 -0.062500 0.062500
v 0.062500 0.000000 0.125000
v 0.062500 0.000000 0.062500
v 0.125000 0.000000 0.125000
v 0.125000 0.000000 0.062500
v -0.125000 0.000000 0.125000
v -0.062500 0.000000 0.125000
v -0.125000 0.000000 0.062500
v -0.062500 0.000000 0.062500
v -0.125000 -0.062500 0.125000
v -0.062500 -0.062500 0.125000
v -0.125000 -0.062500 0.062500
v -0.062500 -0.062500 0.062500
v -0.125000 0.062500 0.125000
v -0.062500 0.062500 0.125000
v -0.125000 0.062500 0.062500
v -0.062500 0.062500 0.062500
v -0.125000 0.000000 0.125000
v -0.062500 0.000000 0.125000
v -0.125000 0.000000 0.062500
v -0.062500 0.000000 0.062500
vn -1.0000 -0.0000 -0.0000
vn -0.0000 -0.0000 -1.0000
vn 1.0000 -0.0000 -0.0000
vn -0.0000 -0.0000 1.0000
vn -0.0000 -1.0000 -0.0000
vn -0.0000 1.0000 -0.0000
vt 0.375000 0.000000
vt 0.625000 0.000000
vt 0.625000 0.250000
vt 0.375000 0.250000
vt 0.625000 0.500000
vt 0.375000 0.500000
vt 0.625000 0.750000
vt 0.375000 0.750000
vt 0.625000 1.000000
vt 0.375000 1.000000
vt 0.125000 0.500000
vt 0.125000 0.750000
vt 0.875000 0.500000
vt 0.875000 0.750000
s 0
usemtl cube
f 1/1/1 2/2/1 4/3/1 3/4/1
f 3/4/2 4/3/2 8/5/2 7/6/2
f 7/6/3 8/5/3 6/7/3 5/8/3
f 5/8/4 6/7/4 2/9/4 1/10/4
f 3/11/5 7/6/5 5/8/5 1/12/5
f 8/5/6 4/13/6 2/14/6 6/7/6
f 9/1/1 10/2/1 12/3/1 11/4/1
f 11/4/2 12/3/2 16/5/2 15/6/2
f 15/6/3 16/5/3 14/7/3 13/8/3
f 13/8/4 14/7/4 10/9/4 9/10/4
f 11/11/5 15/6/5 13/8/5 9/12/5
f 16/5/6 12/13/6 10/14/6 14/7/6
f 17/1/1 18/2/1 20/3/1 19/4/1
f 19/4/2 20/3/2 24/5/2 23/6/2
f 23/6/3 24/5/3 22/7/3 21/8/3
f 21/8/4 22/7/4 18/9/4 17/10/4
f 19/11/5 23/6/5 21/8/5 17/12/5
f 24/5/6 20/13/6 18/14/6 22/7/6
f 25/1/1 26/2/1 28/3/1 27/4/1
f 27/4/2 28/3/2 32/5/2 31/6/2
f 31/6/3 32/5/3 30/7/3 29/8/3
f 29/8/4 30/7/4 26/9/4 25/10/4
f 27/11/5 31/6/5 29/8/5 25/12/5
f 32/5/6 28/13/6 26/14/6 30/7/6
f 33/1/1 34/2/1 36/3/1 35/4/1
f 35/4/2 36/3/2 40/5/2 39/6/2
f 39/6/3 40/5/3 38/7/3 37/8/3
f 37/8/4 38/7/4 34/9/4 33/10/4
f 35/11/5 39/6/5 37/8/5 33/12/5
f 40/5/6 36/13/6 34/14/6 38/7/6
f 41/1/1 42/2/1 44/3/1 43/4/1
f 43/4/2 44/3/2 48/5/2 47/6/2
f 47/6/3 48/5/3 46/7/3 45/8/3
f 45/8/4 46/7/4 42/9/4 41/10/4
f 43/11/5 47/6/5 45/8/5 41/12/5
f 48/5/6 44/13/6 42/14/6 46/7/6
f 49/1/1 50/2/1 52/3/1 51/4/1
f 51/4/2 52/3/2 56/5/2 55/6/2
f 55/6/3 56/5/3 54/7/3 53/8/3
f 53/8/4 54/7/4 50/9/4 49/10/4
f 51/11/5 55/6/5 53/8/5 49/12/5
f 56/5/6 52/13/6 50/14/6 54/7/6
f 57/1/1 58/2/1 60/3/1 59/4/1
f 59/4/2 60/3/2 64/5/2 63/6/2
f 63/6/3 64/5/3 62/7/3 61/8/3
f 61/8/4 62/7/4 58/9/4 57/10/4
f 59/11/5 63/6/5 61/8/5 57/12/5
f 64/5/6 60/13/6 58/14/6 62/7/6
f 65/1/4 66/2/4 68/3/4 67/4/4
f 67/4/1 68/3/1 72/5/1 71/6/1
f 71/6/2 72/5/2 70/7/2 69/8/2
f 69/8/3 70/7/3 66/9/3 65/10/3
f 67/11/5 71/6/5 69/8/5 65/12/5
f 72/5/6 68/13/6 66/14/6 70/7/6
f 73/1/4 74/2/4 76/3/4 75/4/4
f 75/4/1 76/3/1 80/5/1 79/6/1
f 79/6/2 80/5/2 78/7/2 77/8/2
f 77/8/3 78/7/3 74/9/3 73/10/3
f 75/11/5 79/6/5 77/8/5 73/12/5
f 80/5/6 76/13/6 74/14/6 78/7/6
f 81/1/2 82/2/2 84/3/2 83/4/2
f 83/4/3 84/3/3 88/5/3 87/6/3
f 87/6/4 88/5/4 86/7/4 85/8/4
f 85/8/1 86/7/1 82/9/1 81/10/1
f 83/11/5 87/6/5 85/8/5 81/12/5
f 88/5/6 84/13/6 82/14/6 86/7/6
f 89/1/2 90/2/2 92/3/2 91/4/2
f 91/4/3 92/3/3 96/5/3 95/6/3
f 95/6/4 96/5/4 94/7/4 93/8/4
f 93/8/1 94/7/1 90/9/1 89/10/1
f 91/11/5 95/6/5 93/8/5 89/12/5
f 96/5/6 92/13/6 90/14/6 94/7/6
f 97/1/1 98/2/1 100/3/1 99/4/1
f 99/4/2 100/3/2 104/5/2 103/6/2
f 103/6/3 104/5/3 102/7/3 101/8/3
f 101/8/4 102/7/4 98/9/4 97/10/4
f 99/11/5 103/6/5 101/8/5 97/12/5
f 104/5/6 100/13/6 98/14/6 102/7/6
f 105/1/1 106/2/1 108/3/1 107/4/1
f 107/4/2 108/3/2 112/5/2 111/6/2
f 111/6/3 112/5/3 110/7/3 109/8/3
f 109/8/4 110/7/4 106/9/4 105/10/4
f 107/11/5 111/6/5 109/8/5 105/12/5
f 112/5/6 108/13/6 106/14/6 110/7/6
f 113/1/1 114/2/1 116/3/1 115/4/1
f 115/4/2 116/3/2 120/5/2 119/6/2
f 119/6/3 120/5/3 118/7/3 117/8/3
f 117/8/4 118/7/4 114/9/4 113/10/4
f 115/11/5 119/6/5 117/8/5 113/12/5
f 120/5/6 116/13/6 114/14/6 118/7/6
f 121/1/1 122/2/1 124/3/1 123/4/1
f 123/4/2 124/3/2 128/5/2 127/6/2
f 127/6/3 128/5/3 126/7/3 125/8/3
f 125/8/4 126/7/4 122/9/4 121/10/4
f 123/11/5 127/6/5 125/8/5 121/12/5
f 128/5/6 124/13/6 122/14/6 126/7/6
f 129/1/1 130/2/1 132/3/1 131/4/1
f 131/4/2 132/3/2 136/5/2 135/6/2
f 135/6/3 136/5/3 134/7/3 133/8/3
f 133/8/4 134/7/4 130/9/4 129/10/4
f 131/11/5 135/6/5 133/8/5 129/12/5
f 136/5/6 132/13/6 130/14/6 134/7/6
f 137/1/1 138/2/1 140/3/1 139/4/1
f 139/4/2 140/3/2 144/5/2 143/6/2
f 143/6/3 144/5/3 142/7/3 141/8/3
f 141/8/4 142/7/4 138/9/4 137/10/4
f 139/11/5 143/6/5 141/8/5 137/12/5
f 144/5/6 140/13/6 138/14/6 142/7/6
f 145/1/1 146/2/1 148/3/1 147/4/1
f 147/4/2 148/3/2 152/5/2 151/6/2
f 151/6/3 152/5/3 150/7/3 149/8/3
f 149/8/4 150/7/4 146/9/4 145/10/4
f 147/11/5 151/6/5 149/8/5 145/12/5
f 152/5/6 148/13/6 146/14/6 150/7/6
f 153/1/1 154/2/1 156/3/1 155/4/1
f 155/4/2 156/3/2 160/5/2 159/6/2
f 159/6/3 160/5/3 158/7/3 157/8/3
f 157/8/4 158/7/4 154/9/4 153/10/4
f 155/11/5 159/6/5 157/8/5 153/12/5
f 160/5/6 156/13/6 154/14/6 158/7/6
f 161/1/4 162/2/4 164/3/4 163/4/4
f 163/4/1 164/3/1 168/5/1 167/6/1
f 167/6/2 168/5/2 166/7/2 165/8/2
f 165/8/3 166/7/3 162/9/3 161/10/3
f 163/11/5 167/6/5 165/8/5 161/12/5
f 168/5/6 164/13/6 162/14/6 166/7/6
f 169/1/4 170/2/4 172/3/4 171/4/4
f 171/4/1 172/3/1 176/5/1 175/6/1
f 175/6/2 176/5/2 174/7/2 173/8/2
f 173/8/3 174/7/3 170/9/3 169/10/3
f 171/11/5 175/6/5 173/8/5 169/12/5
f 176/5/6 172/13/6 170/14/6 174/7/6
f 177/1/2 178/2/2 180/3/2 179/4/2
f 179/4/3 180/3/3 184/5/3 183/6/3
f 183/6/4 184/5/4 182/7/4 181/8/4
f 181/8/1 182/7/1 178/9/1 177/10/1
f 179/11/5 183/6/5 181/8/5 177/12/5
f 184/5/6 180/13/6 178/14/6 182/7/6
f 185/1/2 186/2/2 188/3/2 187/4/2
f 187/4/3 188/3/3 192/5/3 191/6/3
f 191/6/4 192/5/4 190/7/4 189/8/4
f 189/8/1 190/7/1 186/9/1 185/10/1
f 187/11/5 191/6/5 189/8/5 185/12/5
f 192/5/6 188/13/6 186/14/6 190/7/6
f 193/1/5 194/2/5 196/3/5 195/4/5
f 195/4/2 196/3/2 200/5/2 199/6/2
f 199/6/6 200/5/6 198/7/6 197/8/6
f 197/8/4 198/7/4 194/9/4 193/10/4
f 195/11/3 199/6/3 197/8/3 193/12/3
f 200/5/1 196/13/1 194/14/1 198/7/1
f 201/1/5 202/2/5 204/3/5 203/4/5
f 203/4/2 204/3/2 208/5/2 207/6/2
f 207/6/6 208/5/6 206/7/6 205/8/6
f 205/8/4 206/7/4 202/9/4 201/10/4
f 203/11/3 207/6/3 205/8/3 201/12/3
f 208/5/1 204/13/1 202/14/1 206/7/1
f 209/1/6 210/2/6 212/3/6 211/4/6
f 211/4/2 212/3/2 216/5/2 215/6/2
f 215/6/5 216/5/5 214/7/5 213/8/5
f 213/8/4 214/7/4 210/9/4 209/10/4
f 211/11/1 215/6/1 213/8/1 209/12/1
f 216/5/3 212/13/3 210/14/3 214/7/3
f 217/1/6 218/2/6 220/3/6 219/4/6
f 219/4/2 220/3/2 224/5/2 223/6/2
f 223/6/5 224/5/5 222/7/5 221/8/5
f 221/8/4 222/7/4 218/9/4 217/10/4
f 219/11/1 223/6/1 221/8/1 217/12/1
f 224/5/3 220/13/3 218/14/3 222/7/3
f 225/1/1 226/2/1 228/3/1 227/4/1
f 227/4/2 228/3/2 232/5/2 231/6/2
f 231/6/3 232/5/3 230/7/3 229/8/3
f 229/8/4 230/7/4 226/9/4 225/10/4
f 227/11/5 231/6/5 229/8/5 225/12/5
f 232/5/6 228/13/6 226/14/6 230/7/6
f 233/1/5 234/2/5 236/3/5 235/4/5
f 235/4/3 236/3/3 240/5/3 239/6/3
f 239/6/6 240/5/6 238/7/6 237/8/6
f 237/8/1 238/7/1 234/9/1 233/10/1
f 235/11/4 239/6/4 237/8/4 233/12/4
f 240/5/2 236/13/2 234/14/2 238/7/2
f 241/1/5 242/2/5 244/3/5 243/4/5
f 243/4/3 244/3/3 248/5/3 247/6/3
f 247/6/6 248/5/6 246/7/6 245/8/6
f 245/8/1 246/7/1 242/9/1 241/10/1
f 243/11/4 247/6/4 245/8/4 241/12/4
f 248/5/2 244/13/2 242/14/2 246/7/2
f 249/1/6 250/2/6 252/3/6 251/4/6
f 251/4/2 252/3/2 256/5/2 255/6/2
f 255/6/5 256/5/5 254/7/5 253/8/5
f 253/8/4 254/7/4 250/9/4 249/10/4
f 251/11/1 255/6/1 253/8/1 249/12/1
f 256/5/3 252/13/3 250/14/3 254/7/3
f 257/1/6 258/2/6 260/3/6 259/4/6
f 259/4/2 260/3/2 264/5/2 263/6/2
f 263/6/5 264/5/5 262/7/5 261/8/5
f 261/8/4 262/7/4 258/9/4 257/10/4
f 259/11/1 263/6/1 261/8/1 257/12/1
f 264/5/3 260/13/3 258/14/3 262/7/3
o 平面
v -0.062500 0.093750 0.062500
v 0.062500 0.093750 0.062500
v -0.062500 0.093750 -0.062500
v 0.062500 0.093750 -0.062500
vn -0.0000 1.0000 -0.0000
vt 0.000000 0.000000
vt 1.000000 0.000000
vt 1.000000 1.000000
vt 0.000000 1.000000
s 0
usemtl plane1
f 265/15/7 266/16/7 268/17/7 267/18/7
o 平面.001
v 0.093750 0.062500 0.062500
v 0.093750 -0.062500 0.062500
v 0.093750 0.062500 -0.062500
v 0.093750 -0.062500 -0.062500
vn 1.0000 -0.0000 -0.0000
vt 0.000000 0.000000
vt 1.000000 0.000000
vt 1.000000 1.000000
vt 0.000000 1.000000
s 0
usemtl plane1
f 269/19/8 270/20/8 272/21/8 271/22/8
o 平面.002
v 0.062500 -0.093750 0.062500
v -0.062500 -0.093750 0.062500
v 0.062500 -0.093750 -0.062500
v -0.062500 -0.093750 -0.062500
vn -0.0000 -1.0000 -0.0000
vt 0.000000 0.000000
vt 1.000000 0.000000
vt 1.000000 1.000000
vt 0.000000 1.000000
s 0
usemtl plane2
f 273/23/9 274/24/9 276/25/9 275/26/9
o 平面.003
v -0.093750 -0.062500 0.062500
v -0.093750 0.062500 0.062500
v -0.093750 -0.062500 -0.062500
v -0.093750 0.062500 -0.062500
vn -1.0000 -0.0000 -0.0000
vt 0.000000 0.000000
vt 1.000000 0.000000
vt 1.000000 1.000000
vt 0.000000 1.000000
s 0
usemtl plane1
f 277/27/10 278/28/10 280/29/10 279/30/10
o 平面.004
v 0.062500 -0.062500 0.093750
v 0.062500 0.062500 0.093750
v -0.062500 -0.062500 0.093750
v -0.062500 0.062500 0.093750
vn -0.0000 -0.0000 1.0000
vt 0.000000 0.000000
vt 1.000000 0.000000
vt 1.000000 1.000000
vt 0.000000 1.000000
s 0
usemtl plane1
f 281/31/11 282/32/11 284/33/11 283/34/11
o 平面.005
v -0.062500 -0.062500 -0.093750
v -0.062500 0.062500 -0.093750
v 0.062500 -0.062500 -0.093750
v 0.062500 0.062500 -0.093750
vn -0.0000 -0.0000 -1.0000
vt 0.000000 0.000000
vt 1.000000 0.000000
vt 1.000000 1.000000
vt 0.000000 1.000000
s 0
usemtl plane1
f 285/35/12 286/36/12 288/37/12 287/38/12
